<svg width="16" height="16" viewBox="0 0 16 16" fill="none" xmlns="http://www.w3.org/2000/svg">
<g clip-path="url(#clip0_17_305)">
<path fill-rule="evenodd" clip-rule="evenodd" d="M14 13.1667C14.4602 13.1667 14.8333 12.7936 14.8333 12.3333L14.8333 3C14.8333 2.53977 14.4602 2.16667 14 2.16667L2 2.16667C1.53976 2.16667 1.16666 2.53977 1.16666 3L1.16666 12.3333C1.16666 12.7936 1.53976 13.1667 2 13.1667L14 13.1667ZM15.8333 12.3333C15.8333 13.3459 15.0125 14.1667 14 14.1667L2 14.1667C0.987473 14.1667 0.166662 13.3459 0.166662 12.3333L0.166663 3C0.166663 1.98748 0.987475 1.16667 2 1.16667L14 1.16667C15.0125 1.16667 15.8333 1.98748 15.8333 3L15.8333 12.3333Z" fill="#3F3F46"/>
<path fill-rule="evenodd" clip-rule="evenodd" d="M6.5 14.1667C6.22386 14.1667 6 13.9428 6 13.6667L6 1.66667C6 1.39053 6.22386 1.16667 6.5 1.16667C6.77614 1.16667 7 1.39053 7 1.66667L7 13.6667C7 13.9428 6.77614 14.1667 6.5 14.1667Z" fill="#3F3F46"/>
<path fill-rule="evenodd" clip-rule="evenodd" d="M4.66667 10.3333C4.66667 10.6095 4.47479 10.8333 4.2381 10.8333L3.09524 10.8333C2.85855 10.8333 2.66667 10.6095 2.66667 10.3333C2.66667 10.0572 2.85855 9.83333 3.09524 9.83333L4.2381 9.83333C4.47479 9.83333 4.66667 10.0572 4.66667 10.3333Z" fill="#3F3F46"/>
<path fill-rule="evenodd" clip-rule="evenodd" d="M4.66667 7.66667C4.66667 7.94281 4.47479 8.16667 4.2381 8.16667L3.09524 8.16667C2.85855 8.16667 2.66667 7.94281 2.66667 7.66667C2.66667 7.39053 2.85855 7.16667 3.09524 7.16667L4.2381 7.16667C4.47479 7.16667 4.66667 7.39053 4.66667 7.66667Z" fill="#3F3F46"/>
<path fill-rule="evenodd" clip-rule="evenodd" d="M4.66667 5C4.66667 5.27614 4.47479 5.5 4.2381 5.5L3.09524 5.5C2.85855 5.5 2.66667 5.27614 2.66667 5C2.66667 4.72386 2.85855 4.5 3.09524 4.5L4.2381 4.5C4.47479 4.5 4.66667 4.72386 4.66667 5Z" fill="#3F3F46"/>
</g>
<defs>
<clipPath id="clip0_17_305">
<rect width="16" height="16" fill="white"/>
</clipPath>
</defs>
</svg>
