<svg width="14" height="20" viewBox="0 0 14 20" fill="none" xmlns="http://www.w3.org/2000/svg">
<path fill-rule="evenodd" clip-rule="evenodd" d="M5.125 5.625H2.625C1.24429 5.625 0.125 6.74429 0.125 8.125V14.375C0.125 15.7557 1.24429 16.875 2.625 16.875H8.875C10.2557 16.875 11.375 15.7557 11.375 14.375V8.125C11.375 6.74429 10.2557 5.625 8.875 5.625H6.375L6.375 1.25C6.375 0.904822 6.09518 0.625 5.75 0.625C5.40482 0.625 5.125 0.904822 5.125 1.25V5.625ZM5.125 5.625H6.375V10.3661L7.80806 8.93306C8.05214 8.68898 8.44786 8.68898 8.69194 8.93306C8.93602 9.17714 8.93602 9.57286 8.69194 9.81694L6.19194 12.3169C5.94786 12.561 5.55213 12.561 5.30806 12.3169L2.80806 9.81694C2.56398 9.57286 2.56398 9.17714 2.80806 8.93306C3.05214 8.68898 3.44786 8.68898 3.69194 8.93306L5.125 10.3661V5.625Z" fill="#A1A1AA"/>
<path d="M2.95947 18.125C3.39173 18.8723 4.19966 19.375 5.12502 19.375H11.375C12.7557 19.375 13.875 18.2557 13.875 16.875V10.625C13.875 9.69966 13.3723 8.89173 12.625 8.45947V14.375C12.625 16.4461 10.9461 18.125 8.87502 18.125H2.95947Z" fill="#A1A1AA"/>
</svg>
