<svg width="16" height="18" viewBox="0 0 16 18" fill="none" xmlns="http://www.w3.org/2000/svg">
<path fill-rule="evenodd" clip-rule="evenodd" d="M11.7501 2.73182V2.92081C12.5457 2.99365 13.3347 3.08942 14.1165 3.20748C14.4059 3.25119 14.6944 3.29796 14.9818 3.34775C15.3219 3.40666 15.5498 3.73014 15.4909 4.07025C15.432 4.41036 15.1085 4.63832 14.7684 4.5794C14.7104 4.56936 14.6524 4.55944 14.5943 4.54964L13.7564 15.4417C13.6562 16.7442 12.5701 17.75 11.2638 17.75H4.73641C3.43007 17.75 2.34397 16.7442 2.24377 15.4417L1.40592 4.54964C1.34783 4.55944 1.28978 4.56936 1.23178 4.5794C0.891665 4.63832 0.568189 4.41036 0.509273 4.07025C0.450358 3.73014 0.678314 3.40666 1.01843 3.34775C1.30584 3.29796 1.59429 3.25119 1.88373 3.20748C2.66548 3.08942 3.4545 2.99365 4.2501 2.92081V2.73182C4.2501 1.4281 5.26055 0.315152 6.5963 0.272423C7.06243 0.257512 7.5304 0.25 8.0001 0.25C8.46981 0.25 8.93778 0.257512 9.40391 0.272423C10.7397 0.315152 11.7501 1.4281 11.7501 2.73182ZM6.63627 1.52178C7.08908 1.5073 7.54373 1.5 8.0001 1.5C8.45648 1.5 8.91113 1.5073 9.36394 1.52178C9.99279 1.5419 10.5001 2.06994 10.5001 2.73182V2.82569C9.67313 2.77547 8.83956 2.75 8.0001 2.75C7.16065 2.75 6.32707 2.77547 5.5001 2.82569V2.73182C5.5001 2.06994 6.00742 1.5419 6.63627 1.52178ZM6.3406 6.47598C6.32734 6.13106 6.03697 5.8622 5.69204 5.87546C5.34712 5.88873 5.07826 6.1791 5.09153 6.52402L5.37999 14.024C5.39325 14.3689 5.68362 14.6378 6.02855 14.6245C6.37347 14.6113 6.64233 14.3209 6.62906 13.976L6.3406 6.47598ZM10.9079 6.52402C10.9212 6.1791 10.6523 5.88873 10.3074 5.87546C9.96247 5.8622 9.6721 6.13106 9.65884 6.47598L9.37037 13.976C9.35711 14.3209 9.62597 14.6113 9.97089 14.6245C10.3158 14.6378 10.6062 14.3689 10.6194 14.024L10.9079 6.52402Z" fill="#A1A1AA"/>
</svg>
