<svg width="18" height="18" viewBox="0 0 18 18" fill="none" xmlns="http://www.w3.org/2000/svg">
<path d="M2.75061 8.99935C2.75061 12.4511 5.54883 15.2494 9.00061 15.2494C12.4524 15.2494 15.2506 12.4511 15.2506 8.99935M2.75061 8.99935C2.75061 5.54757 5.54883 2.74935 9.00061 2.74935C12.4524 2.74935 15.2506 5.54757 15.2506 8.99935M2.75061 8.99935L1.50061 8.99935M15.2506 8.99935L16.5006 8.99935M15.2506 8.99935L9.00061 8.99935M1.95274 11.5645L3.12736 11.137M14.8735 6.86173L16.0481 6.4342M3.25517 13.8208L4.21272 13.0173M13.7883 4.98245L14.7458 4.17896M5.25053 15.4952L5.87553 14.4127M12.1255 3.58734L12.7505 2.50481M7.69817 16.386L7.91523 15.155M10.0858 2.84492L10.3029 1.61391M10.3029 16.3861L10.0858 15.155M7.91524 2.84495L7.69818 1.61394M12.7506 15.4951L12.1256 14.4125M5.25057 2.50468L9.00061 8.99935M14.746 13.8203L13.7884 13.0168M4.21285 4.98193L3.25529 4.17845M16.0483 11.5646L14.8737 11.1371M3.12757 6.86186L1.95295 6.43433M9.00061 8.99935L5.87561 14.412" stroke="#71717A" stroke-width="1.5" stroke-linecap="round" stroke-linejoin="round"/>
</svg>
