<svg width="18" height="18" viewBox="0 0 18 18" fill="none" xmlns="http://www.w3.org/2000/svg">
<path d="M7.23242 5.2657C8.20873 4.41143 9.79165 4.41143 10.768 5.2657C11.7443 6.11998 11.7443 7.50502 10.768 8.3593C10.598 8.50798 10.4097 8.63079 10.2094 8.72772C9.58803 9.02845 9.00019 9.55964 9.00019 10.25V10.875M16.5 9C16.5 13.1421 13.1421 16.5 9 16.5C4.85786 16.5 1.5 13.1421 1.5 9C1.5 4.85786 4.85786 1.5 9 1.5C13.1421 1.5 16.5 4.85786 16.5 9ZM9 13.375H9.00625V13.3813H9V13.375Z" stroke="#3F3F46" stroke-width="1.2" stroke-linecap="round" stroke-linejoin="round"/>
</svg>
