<svg width="16" height="16" viewBox="0 0 16 16" fill="none" xmlns="http://www.w3.org/2000/svg">
<path d="M1.59998 8.00001C1.59998 9.69739 2.27426 11.3253 3.47449 12.5255C4.67473 13.7257 6.30259 14.4 7.99998 14.4C9.69736 14.4 11.3252 13.7257 12.5255 12.5255C13.7257 11.3253 14.4 9.69739 14.4 8.00001C14.4 6.30262 13.7257 4.67476 12.5255 3.47452C11.3252 2.27429 9.69736 1.60001 7.99998 1.60001C6.30259 1.60001 4.67473 2.27429 3.47449 3.47452C2.27426 4.67476 1.59998 6.30262 1.59998 8.00001Z" stroke="#EAB308" stroke-linecap="round" stroke-linejoin="round"/>
<path d="M4.79999 8.00002C4.79999 8.84871 5.13713 9.66264 5.73725 10.2628C6.33736 10.8629 7.1513 11.2 7.99999 11.2C8.84868 11.2 9.66261 10.8629 10.2627 10.2628C10.8628 9.66264 11.2 8.84871 11.2 8.00002C11.2 7.15133 10.8628 6.33739 10.2627 5.73728C9.66261 5.13716 8.84868 4.80002 7.99999 4.80002C7.1513 4.80002 6.33736 5.13716 5.73725 5.73728C5.13713 6.33739 4.79999 7.15133 4.79999 8.00002Z" fill="#EAB308"/>
</svg>
