<svg width="16" height="16" viewBox="0 0 16 16" fill="none" xmlns="http://www.w3.org/2000/svg">
<path fill-rule="evenodd" clip-rule="evenodd" d="M4.93331 1.60004C3.09236 1.60004 1.59998 3.09242 1.59998 4.93337V11.0667C1.59998 12.9077 3.09236 14.4 4.93331 14.4H11.0666C12.9076 14.4 14.4 12.9077 14.4 11.0667V4.93337C14.4 3.09242 12.9076 1.60004 11.0666 1.60004H4.93331ZM12.2643 5.22432C12.4986 4.99001 12.4986 4.61011 12.2643 4.37579C12.03 4.14148 11.6501 4.14148 11.4158 4.3758L6.08004 9.71153L4.58431 8.2158C4.34999 7.98148 3.97009 7.98148 3.73578 8.2158C3.50147 8.45011 3.50147 8.83001 3.73578 9.06432L5.65578 10.9843C5.7683 11.0968 5.92091 11.1601 6.08004 11.1601C6.23917 11.1601 6.39179 11.0968 6.50431 10.9843L12.2643 5.22432Z" fill="#60A5FA"/>
</svg>
