<svg width="16" height="16" viewBox="0 0 16 16" fill="none" xmlns="http://www.w3.org/2000/svg">
<path fill-rule="evenodd" clip-rule="evenodd" d="M3.5 1.5C2.39543 1.5 1.5 2.39543 1.5 3.5V6.37868C1.5 6.90911 1.71071 7.41782 2.08579 7.79289L8.4732 14.1803C9.08608 14.7932 10.0659 14.9709 10.8382 14.4653C12.2828 13.5195 13.5195 12.2828 14.4653 10.8382C14.9709 10.0659 14.7932 9.08608 14.1803 8.47319L7.79289 2.08579C7.41782 1.71071 6.90911 1.5 6.37868 1.5H3.5ZM4.25 5C4.66421 5 5 4.66421 5 4.25C5 3.83579 4.66421 3.5 4.25 3.5C3.83579 3.5 3.5 3.83579 3.5 4.25C3.5 4.66421 3.83579 5 4.25 5Z" fill="#00C16A"/>
</svg>
