<svg width="16" height="18" viewBox="0 0 16 18" fill="none" xmlns="http://www.w3.org/2000/svg">
<path fill-rule="evenodd" clip-rule="evenodd" d="M7.23158 0.875C6.46777 0.875 5.81591 1.42721 5.69034 2.18063L5.54145 3.07394C5.52466 3.1747 5.44618 3.2915 5.29426 3.36456C5.00754 3.50244 4.73306 3.6615 4.47283 3.83967C4.33409 3.93466 4.19382 3.94433 4.09807 3.90846L3.24876 3.59028C2.53349 3.32231 1.72934 3.61074 1.34743 4.27222L0.579112 5.60298C0.197206 6.26446 0.349503 7.10509 0.939197 7.59055L1.63963 8.16717C1.71849 8.23209 1.78024 8.35819 1.76766 8.5256C1.75588 8.6823 1.7499 8.84051 1.7499 9C1.7499 9.15955 1.75589 9.31782 1.76768 9.47458C1.78026 9.642 1.71851 9.7681 1.63965 9.83302L0.939197 10.4097C0.349502 10.8951 0.197206 11.7357 0.579112 12.3972L1.34743 13.728C1.72934 14.3895 2.53349 14.6779 3.24876 14.4099L4.09826 14.0917C4.19401 14.0558 4.33427 14.0655 4.47301 14.1605C4.73318 14.3386 5.00761 14.4976 5.29426 14.6354C5.44618 14.7085 5.52466 14.8253 5.54145 14.9261L5.69034 15.8194C5.81591 16.5728 6.46777 17.125 7.23158 17.125H8.76822C9.53203 17.125 10.1839 16.5728 10.3095 15.8194L10.4583 14.9261C10.4751 14.8253 10.5536 14.7085 10.7055 14.6354C10.9923 14.4976 11.2667 14.3385 11.527 14.1603C11.6657 14.0653 11.806 14.0557 11.9017 14.0915L12.751 14.4097C13.4663 14.6777 14.2705 14.3893 14.6524 13.7278L15.4207 12.397C15.8026 11.7355 15.6503 10.8949 15.0606 10.4094L14.3602 9.83283C14.2813 9.76791 14.2196 9.64181 14.2321 9.4744C14.2439 9.3177 14.2499 9.15949 14.2499 9C14.2499 8.84045 14.2439 8.68218 14.2321 8.52543C14.2195 8.358 14.2813 8.2319 14.3601 8.16698L15.0606 7.59035C15.6503 7.10489 15.8026 6.26426 15.4207 5.60278L14.6524 4.27202C14.2705 3.61054 13.4663 3.32211 12.751 3.59008L11.9015 3.90833C11.8058 3.9442 11.6655 3.93453 11.5268 3.83955C11.2666 3.66142 10.9922 3.5024 10.7055 3.36456C10.5536 3.2915 10.4751 3.1747 10.4583 3.07394L10.3095 2.18063C10.1839 1.42721 9.53203 0.875 8.76822 0.875H7.23158ZM8 12.125C9.72589 12.125 11.125 10.7259 11.125 9C11.125 7.27411 9.72589 5.875 8 5.875C6.27411 5.875 4.875 7.27411 4.875 9C4.875 10.7259 6.27411 12.125 8 12.125Z" stroke="#3F3F46" stroke-width="1.2" fill="none"/>
</svg>
