<svg width="20" height="20" viewBox="0 0 20 20" fill="none" xmlns="http://www.w3.org/2000/svg">
<rect width="20" height="20" rx="3" fill="#007F45"/>
<path d="M6.69073 10.7638C7.64546 9.80908 8.94035 9.27272 10.2905 9.27272H16.9091L12.2184 13.9634C11.2636 14.9182 9.96874 15.4545 8.61855 15.4545H2L6.69073 10.7638Z" fill="url(#paint0_linear_17_293)"/>
<path d="M7.78163 6.03655C8.73636 5.08182 10.0313 4.54546 11.3815 4.54546H18L13.3093 9.23618C12.3545 10.1909 11.0597 10.7273 9.70946 10.7273H3.09091L7.78163 6.03655Z" fill="white"/>
<path d="M8.18182 14.3636L13.2727 9.27273H10.7273L11.8182 5.63637L6.72727 10.7273H9.27273L8.18182 14.3636Z" fill="url(#paint1_linear_17_293)"/>
<defs>
<linearGradient id="paint0_linear_17_293" x1="9.45455" y1="9.27272" x2="9.45455" y2="15.4545" gradientUnits="userSpaceOnUse">
<stop stop-color="white" stop-opacity="0.72"/>
<stop offset="1" stop-color="white"/>
</linearGradient>
<linearGradient id="paint1_linear_17_293" x1="10" y1="5.63637" x2="10" y2="14.3636" gradientUnits="userSpaceOnUse">
<stop stop-color="#007F45"/>
<stop offset="1" stop-color="#00C16A"/>
</linearGradient>
</defs>
</svg>
